# xmcd
#
# Track frame offsets: 
#        150
#        12942
#        23890
#        34987
#        45102
#        59862
#        72492
#        83572
#        95855
#        106575
#        115800
#        128597
#        138620
#        152825
#        161910
#
# Disc length: 2276 seconds
#
# Revision: 1
# Processed by: cddbd v1.5.2PL0 Copyright (c) Steve Scherf et al.
# Submitted via: ExactAudioCopyFreeDBPlugin 1.0
#
DISCID=c908e20f
DTITLE=Various Artist - Mexico - Sones
DYEAR=1900
DGENRE=Latin
TTITLE0=La Negra
TTITLE1=La Bamba
TTITLE2=Las Copetonas
TTITLE3=El Cascabel
TTITLE4=Las Olas
TTITLE5=El Cupido
TTITLE6=El Jarabe Tapatio
TTITLE7=El Siquisiri
TTITLE8=La Madrugada
TTITLE9=El Palomo
TTITLE10=El Gusto
TTITLE11=Maria Chuchena
TTITLE12=El Palmero
TTITLE13=El Colas
TTITLE14=El Maracumbe
EXTD=
EXTT0=
EXTT1=
EXTT2=
EXTT3=
EXTT4=
EXTT5=
EXTT6=
EXTT7=
EXTT8=
EXTT9=
EXTT10=
EXTT11=
EXTT12=
EXTT13=
EXTT14=
PLAYORDER=
